<svg id="Capa_1" data-name="Capa 1" xmlns="http://www.w3.org/2000/svg" xmlns:xlink="http://www.w3.org/1999/xlink" viewBox="0 0 397.17 397.17"><defs><style>.cls-1{fill:#ffc107;}.cls-2{fill:#fff;}.cls-3{fill:url(#linear-gradient);}.cls-4{fill:url(#linear-gradient-2);}.cls-5{fill:#ff6e02;}</style><linearGradient id="linear-gradient" x1="162.51" y1="420.02" x2="162.51" y2="283.25" gradientTransform="translate(-14.75 -199.82) scale(1.07)" gradientUnits="userSpaceOnUse"><stop offset="0" stop-color="#c2cece" stop-opacity="0"/><stop offset="0.18" stop-color="#afbcbc" stop-opacity="0.18"/><stop offset="1" stop-color="#5b6a6a"/></linearGradient><linearGradient id="linear-gradient-2" x1="276.01" y1="420.02" x2="276.01" y2="283.25" xlink:href="#linear-gradient"/></defs><path class="cls-1" d="M340.2,41.21H56.69A14.43,14.43,0,0,0,42.27,55.64V353.26a14.43,14.43,0,0,0,14.42,14.42H340.2a14.43,14.43,0,0,0,14.42-14.42V55.64A14.43,14.43,0,0,0,340.2,41.21Z"/><path class="cls-2" d="M96.19,253.62v-80.9q0-32,17-47t45.32-15q28.35,0,45.45,15t17.1,47v80.9q0,32-17.1,47t-45.45,15q-28.36,0-45.32-15T96.19,253.62Zm29.47,0q0,35.86,32.8,35.86,15.84,0,24.46-8.89t8.62-27v-80.9q0-18.06-8.62-27t-24.46-8.9q-32.81,0-32.8,35.86Z"/><path class="cls-2" d="M239.08,152.71a13.27,13.27,0,0,1,5.83-11.4l28.92-27.8a10.18,10.18,0,0,1,7.5-3.06,16.14,16.14,0,0,1,9,2.64,8.14,8.14,0,0,1,4,7.09v184c0,3-1.49,5.33-4.45,7.09A19.77,19.77,0,0,1,279.66,314a19.58,19.58,0,0,1-10.42-2.64c-2.87-1.76-4.31-4.13-4.31-7.09V149.65l-9.73,12.23a8.47,8.47,0,0,1-6.12,2.78,8.71,8.71,0,0,1-7.08-3.75A13,13,0,0,1,239.08,152.71Z"/><path class="cls-3" d="M191.53,215.59v38q0,18.08-8.61,27t-24.46,8.9q-32.81,0-32.81-35.87v-38H96.19v38q0,32,17,47t45.31,15q28.35,0,45.45-15t17.1-47v-38Z"/><path class="cls-4" d="M264.93,215.59v88.63c0,3,1.44,5.33,4.31,7.09a19.53,19.53,0,0,0,10.42,2.63A19.77,19.77,0,0,0,290,311.31c3-1.76,4.45-4.13,4.45-7.09V215.59Z"/><path class="cls-5" d="M146.52,70.54h0a13.45,13.45,0,0,1-13.46-13.46V34a13.46,13.46,0,0,1,13.46-13.46h0A13.46,13.46,0,0,1,160,34V57.08A13.46,13.46,0,0,1,146.52,70.54Z"/><path class="cls-5" d="M146.52,20.54v50A13.46,13.46,0,0,0,160,57.08V34A13.46,13.46,0,0,0,146.52,20.54Z"/><path class="cls-5" d="M244.36,70.54h0A13.46,13.46,0,0,1,230.9,57.08V34a13.46,13.46,0,0,1,13.46-13.46h0A13.47,13.47,0,0,1,257.83,34V57.08A13.46,13.46,0,0,1,244.36,70.54Z"/><path class="cls-5" d="M244.36,20.54v50a13.46,13.46,0,0,0,13.47-13.46V34A13.47,13.47,0,0,0,244.36,20.54Z"/></svg>