<svg id="Capa_1" data-name="Capa 1" xmlns="http://www.w3.org/2000/svg" viewBox="0 0 397.17 397.17"><defs><style>.cls-1{fill:#ffa000;}.cls-2{fill:#ffc107;}.cls-3{fill:#ff6e02;}</style></defs><path class="cls-1" d="M239.06,311.73a60,60,0,1,1-60-60A60,60,0,0,1,239.06,311.73Z"/><path class="cls-2" d="M284.13,190.65c-50.8-7.26-90-50.94-90-103.73A104.26,104.26,0,0,1,203,44.81,104.53,104.53,0,0,0,74.2,146.87v41.79a100.49,100.49,0,0,1-35.79,76.92,26.22,26.22,0,0,0,17.05,46.15H302.75a26.23,26.23,0,0,0,16.91-46.28A100.36,100.36,0,0,1,284.13,190.65Z"/><path class="cls-3" d="M373.94,86.92A74.94,74.94,0,1,1,299,12,74.94,74.94,0,0,1,373.94,86.92Z"/></svg>