<svg id="Capa_1" data-name="Capa 1" xmlns="http://www.w3.org/2000/svg" viewBox="0 0 397.17 397.17"><defs><style>.cls-1{fill:#ffcb00;}.cls-2{fill:#ffb100;}.cls-3{fill:#ff6e02;}.cls-4{fill:#ffdd02;}</style></defs><path class="cls-1" d="M250.78,334.22V291.8H20.54v42.42A42.41,42.41,0,0,0,63,376.63H293.19a42.41,42.41,0,0,1-42.41-42.41Z"/><path class="cls-2" d="M147.78,25.22a42.42,42.42,0,0,0-42.42,42.41V291.81H250.77v42.41a42.42,42.42,0,0,0,84.83,0h0V67.63A42.41,42.41,0,0,1,378,25.22Z"/><path class="cls-3" d="M299.25,261.51V249.39H287.13v12.12A18.18,18.18,0,0,0,269,279.69v12.12A18.18,18.18,0,0,0,287.13,310h12.12A6.06,6.06,0,0,1,305.3,316v12.12a6.06,6.06,0,0,1-6.05,6.06H287.13a6.06,6.06,0,0,1-6.06-6.06V322.1H269v6.06a18.17,18.17,0,0,0,18.18,18.17v12.12h12.12V346.33a18.17,18.17,0,0,0,18.17-18.17V316a18.18,18.18,0,0,0-18.17-18.18H287.13a6.05,6.05,0,0,1-6.06-6.05V279.69a6.06,6.06,0,0,1,6.06-6.06h12.12a6.05,6.05,0,0,1,6.05,6.06v6.06h12.12v-6.06A18.18,18.18,0,0,0,299.25,261.51Z"/><rect class="cls-4" x="135.66" y="176.69" width="36.35" height="12.12"/><rect class="cls-4" x="159.89" y="43.39" width="121.18" height="12.12"/><rect class="cls-4" x="123.54" y="67.63" width="193.88" height="12.12"/><rect class="cls-4" x="135.66" y="103.98" width="60.59" height="12.12"/><rect class="cls-4" x="135.66" y="128.22" width="48.47" height="12.12"/><rect class="cls-4" x="135.66" y="152.45" width="72.71" height="12.12"/><rect class="cls-4" x="135.66" y="200.92" width="60.59" height="12.12"/><rect class="cls-4" x="281.07" y="103.98" width="24.24" height="12.12"/><rect class="cls-4" x="281.07" y="128.22" width="24.24" height="12.12"/><rect class="cls-4" x="281.07" y="152.45" width="24.24" height="12.12"/><rect class="cls-4" x="281.07" y="176.69" width="24.24" height="12.12"/><rect class="cls-4" x="281.07" y="200.92" width="24.24" height="12.12"/><rect class="cls-4" x="135.66" y="261.51" width="96.94" height="12.12"/><rect class="cls-4" x="135.66" y="237.28" width="96.94" height="12.12"/></svg>